{
  "title": "Tropa.de.Elite.Elite.Squad.2007.720p.Bluray.x264.anoXmous",
  "uid": 6930966,
  "size": 733484943,
  "categoryP": "video",
  "categoryS": "hd___movies",
  "magnet": "?xt=urn:btih:174e148c270f92d9439c67960111891b1eaa3418&amp;dn=Tropa.de.Elite.Elite.Squad.2007.720p.Bluray.x264.anoXmous&amp;tr=udp%3A%2F%2Ftracker.openbittorrent.com%3A80&amp;tr=udp%3A%2F%2Fopen.demonii.com%3A1337&amp;tr=udp%3A%2F%2Ftracker.coppersurfer.tk%3A6969&amp;tr=udp%3A%2F%2Fexodus.desync.com%3A6969",
  "seeders": 114,
  "leechers": 5,
  "uploader": "anoXmous",
  "files": -1,
  "time": 1325662719,
  "description": "Tropa.de.Elite.Elite.Squad.2007.720p.Bluray.x264.anoXmous\n\nFormat                           : MPEG-4\nFormat profile                   : Base Media\nCodec ID                         : isom\nFile size                        : 699 MiB\nDuration                         : 1h 54mn\nOverall bit rate mode            : Variable\nOverall bit rate                 : 852 Kbps\n\n\nVideo\nID                               : 1\nFormat                           : AVC\nFormat/Info                      : Advanced Video Codec\nFormat profile                   : &lt;a class=&quot;__cf_email__&quot; href=&quot;/cdn-cgi/l/email-protection&quot; data-cfemail=&quot;5119383639111d657f60&quot;&gt;[email&amp;#160;protected]&lt;/a&gt;&lt;script cf-hash='f9e31' type=&quot;text/javascript&quot;&gt;\n/* &lt;![CDATA[ */!function(){try{var t=&quot;currentScript&quot;in document?document.currentScript:function(){for(var t=document.getElementsByTagName(&quot;script&quot;),e=t.length;e--;)if(t[e].getAttribute(&quot;cf-hash&quot;))return t[e]}();if(t&amp;&amp;t.previousSibling){var e,r,n,i,c=t.previousSibling,a=c.getAttribute(&quot;data-cfemail&quot;);if(a){for(e=&quot;&quot;,r=parseInt(a.substr(0,2),16),n=2;a.length-n;n+=2)i=parseInt(a.substr(n,2),16)^r,e+=String.fromCharCode(i);e=document.createTextNode(e),c.parentNode.replaceChild(e,c)}}}catch(u){}}();/* ]]&gt; */&lt;/script&gt;\nFormat settings, CABAC           : Yes\nFormat settings, ReFrames        : 4 frames\nCodec ID                         : avc1\nCodec ID/Info                    : Advanced Video Coding\nDuration                         : 1h 54mn\nBit rate                         : 783 Kbps\nMaximum bit rate                 : 3 851 Kbps\nWidth                            : 1 280 pixels\nHeight                           : 692 pixels\nDisplay aspect ratio             : 1.850\nFrame rate mode                  : Constant\nFrame rate                       : 23.976 fps\nColor space                      : YUV\nChroma subsampling               : 4:2:0\nBit depth                        : 8 bits\nScan type                        : Progressive\nBits/(Pixel*Frame)               : 0.037\nStream size                      : 642 MiB (92%)\nWriting library                  : x264 core 120 r2120 0c7dab9\n\n\nAudio\nID                               : 2\nFormat                           : AAC\nFormat/Info                      : Advanced Audio Codec\nFormat profile                   : LC\nCodec ID                         : 40\nDuration                         : 1h 54mn\nBit rate mode                    : Variable\nBit rate                         : 66.2 Kbps\nMaximum bit rate                 : 95.3 Kbps\nChannel(s)                       : 2 channels\nChannel positions                : Front: L R\nSampling rate                    : 48.0 KHz \nCompression mode                 : Lossy\nStream size                      : 55.0 MiB (8%)\n\n\n                     SUB         :\n\n       : Tropa.de.Elite.Elite.Squad.2007.720p.Bluray.x264.anoXmous_eng.srt\n                                \n       : Tropa.de.Elite.Elite.Squad.2007.720p.Bluray.x264.anoXmous_swe.srt\n                                 \n\n                   &lt;a href=&quot; http://www.imdb.com/title/tt0861739/&quot; rel=&quot;nofollow&quot; target=&quot;_NEW&quot;&gt; http://www.imdb.com/title/tt0861739/&lt;/a&gt;\n\n\t\t\t\t\t\n\t           This work very fine with PSP and XBOX\n",
  "parsed": {
    "xt": "urn:btih:174e148c270f92d9439c67960111891b1eaa3418",
    "dn": "Tropa.de.Elite.Elite.Squad.2007.720p.Bluray.x264.anoXmous",
    "tr": [
      "udp://exodus.desync.com:6969",
      "udp://open.demonii.com:1337",
      "udp://tracker.coppersurfer.tk:6969",
      "udp://tracker.openbittorrent.com:80"
    ],
    "infoHash": "174e148c270f92d9439c67960111891b1eaa3418",
    "infoHashBuffer": {
      "type": "Buffer",
      "data": [
        23,
        78,
        20,
        140,
        39,
        15,
        146,
        217,
        67,
        156,
        103,
        150,
        1,
        17,
        137,
        27,
        30,
        170,
        52,
        24
      ]
    },
    "name": "Tropa.de.Elite.Elite.Squad.2007.720p.Bluray.x264.anoXmous",
    "announce": [
      "udp://exodus.desync.com:6969",
      "udp://open.demonii.com:1337",
      "udp://tracker.coppersurfer.tk:6969",
      "udp://tracker.openbittorrent.com:80"
    ],
    "urlList": []
  },
  "previous": 119,
  "peers": 40,
  "last_updated": "2016-12-24T18:14:26.911Z"
}